<svg width="12" height="12" viewBox="0 0 12 12" fill="none" xmlns="http://www.w3.org/2000/svg">
<path d="M11.8999 2.55699C11.8474 2.34535 11.5826 2.27363 11.4284 2.42785L9.68558 4.17066L8.09465 3.90558L7.82957 2.31465L9.57238 0.571839C9.72753 0.416683 9.65277 0.152309 9.43972 0.0993401C8.32926 -0.175816 7.10652 0.120668 6.23864 0.988323C5.30958 1.91738 5.05387 3.2641 5.44059 4.43832L0.439276 9.43963C-0.146425 10.0253 -0.146425 10.975 0.439276 11.5607C1.02498 12.1464 1.97466 12.1464 2.56036 11.5607L7.55746 6.56362C8.73214 6.95526 10.0763 6.69675 11.0114 5.76159C11.8803 4.89277 12.1763 3.66816 11.8999 2.55699ZM1.50005 11.0624C1.18951 11.0624 0.937556 10.8105 0.937556 10.4999C0.937556 10.1892 1.18951 9.93745 1.50005 9.93745C1.8106 9.93745 2.06255 10.1892 2.06255 10.4999C2.06255 10.8105 1.8106 11.0624 1.50005 11.0624Z" fill="black"/>
</svg>
