<svg width="26" height="26" viewBox="0 0 26 26" fill="none" xmlns="http://www.w3.org/2000/svg">
<path d="M12.7946 20.5247L12.8056 21.3765C12.8102 21.7371 12.5223 22.025 12.1635 22.0185L4.70661 21.9247C4.34595 21.9201 4.05061 21.6248 4.04792 21.266L3.95224 13.8072C3.94761 13.4465 4.23547 13.1586 4.59424 13.1652L5.44603 13.1761C5.81053 13.1808 6.10791 13.4857 6.10492 13.8501L6.05347 18.3628L11.4963 12.9199C11.7482 12.6681 12.1588 12.6733 12.4172 12.9318L13.0389 13.5535C13.2974 13.812 13.3026 14.2225 13.0508 14.4744L7.60791 19.9172L12.1206 19.8658C12.4869 19.8609 12.7918 20.1583 12.7946 20.5247Z" fill="black"/>
<path d="M13.1761 5.4459L13.1651 4.59411C13.1605 4.23344 13.4484 3.94558 13.8072 3.9521L21.2641 4.04585C21.6248 4.05047 21.9201 4.34582 21.9228 4.70454L22.0185 12.1634C22.0231 12.5241 21.7352 12.8119 21.3765 12.8054L20.5247 12.7945C20.1602 12.7898 19.8628 12.4849 19.8658 12.1205L19.9172 7.60778L14.4744 13.0506C14.2225 13.3025 13.812 13.2972 13.5535 13.0388L12.9318 12.417C12.6733 12.1586 12.6681 11.7481 12.9199 11.4962L18.3628 6.05334L13.8501 6.10478C13.4838 6.10968 13.1789 5.81229 13.1761 5.4459Z" fill="black"/>
</svg>
