<svg width="12" height="12" viewBox="0 0 12 12" fill="none" xmlns="http://www.w3.org/2000/svg">
<path d="M11.9023 4.54543L11.4308 4.01505C11.3006 3.86856 11.0896 3.86856 10.9594 4.01505L10.7237 4.28012L10.1217 3.60278C10.2389 3.10333 10.1292 2.55045 9.78103 2.15881L8.83831 1.09827C7.53664 -0.366091 5.426 -0.366091 4.12412 1.09827L6.00976 2.15881V2.59826C6.00976 2.99599 6.15017 3.37755 6.40038 3.6588L7.42414 4.81051C7.77227 5.20215 8.26373 5.32566 8.70769 5.19371L9.30978 5.87105L9.07415 6.13612C8.94394 6.28261 8.94394 6.52003 9.07415 6.66651L9.54561 7.19689C9.67582 7.34338 9.88686 7.34338 10.0171 7.19689L11.9027 5.07558C12.0325 4.92933 12.0325 4.69192 11.9023 4.54543ZM5.92892 4.18918C5.85184 4.10247 5.78642 4.00661 5.72371 3.90911L0.4091 9.49117C-0.123611 10.0509 -0.137987 10.9956 0.377225 11.5755C0.892436 12.1553 1.73244 12.1391 2.22994 11.5396L7.19101 5.56144C7.10851 5.49324 7.02643 5.42386 6.95268 5.34089L5.92892 4.18918Z" fill="black"/>
</svg>
