<svg width="15" height="15" viewBox="0 0 484 587" fill="none" xmlns="http://www.w3.org/2000/svg">
<path d="M143.38 254H483.38V454C483.38 527.454 423.834 587 350.38 587H276.38C202.926 587 143.38 527.454 143.38 454V254Z" fill="black"/>
<path d="M410.38 128.5C410.38 108.342 426.721 92 446.88 92V92C467.038 92 483.38 108.342 483.38 128.5V285H410.38V128.5Z" fill="black"/>
<path d="M321.38 58.5C321.38 38.3416 337.721 22 357.88 22V22C378.038 22 394.38 38.3416 394.38 58.5V285H321.38V58.5Z" fill="black"/>
<path d="M232.38 36.5C232.38 16.3416 248.721 0 268.88 0V0C289.038 0 305.38 16.3416 305.38 36.5V285H232.38V36.5Z" fill="black"/>
<path d="M143.38 82.5C143.38 62.3416 159.721 46 179.88 46V46C200.038 46 216.38 62.3416 216.38 82.5V331H143.38V82.5Z" fill="black"/>
<path d="M25.476 347.471C11.406 330.44 13.8066 305.227 30.8378 291.157L34.6825 287.981C51.7137 273.911 76.9263 276.312 90.9963 293.343L253.481 490.025L187.961 544.154L25.476 347.471Z" fill="black"/>
</svg>
