<svg width="28" height="19" viewBox="0 0 26 17" fill="none" xmlns="http://www.w3.org/2000/svg">
<path d="M15.592 0H2C0.854167 0 0 0.854167 0 2V14.5C0 15.6458 0.854167 16.6667 2 16.6667H15.592C16.7378 16.6667 18 15.6458 18 14.5V8.5V2C18 0.854167 16.7378 0 15.592 0ZM23.8125 1.63628L19.0556 4.91753V11.7491L23.8125 15.026C24.7326 15.6597 26 15.013 26 13.9062V2.75608C26 1.65365 24.737 1.0026 23.8125 1.63628Z" fill="black" fill-opacity="0.8"/>
<path d="M11.3571 7.5H11.0357V6.375C11.0357 5.06562 10.1223 4 9 4C7.87768 4 6.96429 5.06562 6.96429 6.375V7.5H6.64286C6.28795 7.5 6 7.83594 6 8.25V11.25C6 11.6641 6.28795 12 6.64286 12H11.3571C11.7121 12 12 11.6641 12 11.25V8.25C12 7.83594 11.7121 7.5 11.3571 7.5ZM9.96429 7.5H8.03571V6.375C8.03571 5.75469 8.4683 5.25 9 5.25C9.5317 5.25 9.96429 5.75469 9.96429 6.375V7.5Z" fill="white"/>
</svg>
