<svg width="13" height="20" viewBox="0 0 13 20" fill="none" xmlns="http://www.w3.org/2000/svg">
<g filter="url(#filter0_d_32_214)">
<path d="M6.5 0C7.42047 0 8.16667 0.671578 8.16667 1.5C8.16667 2.32842 7.42047 3 6.5 3C5.57953 3 4.83333 2.32842 4.83333 1.5C4.83333 0.671578 5.57953 0 6.5 0ZM7.75 3.375H7.45417C6.86273 3.61976 6.16276 3.63033 5.54583 3.375H5.25C4.55964 3.375 4 3.87867 4 4.5V7.6875C4 7.99816 4.27982 8.25 4.625 8.25H5.04167V11.4375C5.04167 11.7482 5.32148 12 5.66667 12H7.33333C7.67852 12 7.95833 11.7482 7.95833 11.4375V8.25H8.375C8.72018 8.25 9 7.99816 9 7.6875V4.5C9 3.87867 8.44036 3.375 7.75 3.375Z" fill="black" fill-opacity="0.8" shape-rendering="crispEdges"/>
</g>
<defs>
<filter id="filter0_d_32_214" x="0" y="0" width="13" height="20" filterUnits="userSpaceOnUse" color-interpolation-filters="sRGB">
<feFlood flood-opacity="0" result="BackgroundImageFix"/>
<feColorMatrix in="SourceAlpha" type="matrix" values="0 0 0 0 0 0 0 0 0 0 0 0 0 0 0 0 0 0 127 0" result="hardAlpha"/>
<feOffset dy="4"/>
<feGaussianBlur stdDeviation="2"/>
<feComposite in2="hardAlpha" operator="out"/>
<feColorMatrix type="matrix" values="0 0 0 0 0 0 0 0 0 0 0 0 0 0 0 0 0 0 0.25 0"/>
<feBlend mode="normal" in2="BackgroundImageFix" result="effect1_dropShadow_32_214"/>
<feBlend mode="normal" in="SourceGraphic" in2="effect1_dropShadow_32_214" result="shape"/>
</filter>
</defs>
</svg>
