<svg width="25" height="23" viewBox="0 0 25 23" fill="none" xmlns="http://www.w3.org/2000/svg">
<path d="M18.8399 14.8874L19.5501 15.5878C20.023 15.1725 20.3555 14.7584 20.5225 14.3372C20.6974 13.8959 20.6831 13.4618 20.4876 13.0709C20.3028 12.7012 19.9792 12.4161 19.6192 12.1934C19.255 11.9682 18.8162 11.7839 18.3473 11.6314C16.8467 11.1436 14.8481 10.9235 13.4166 10.8566C13.1158 10.8412 12.8099 10.8333 12.5 10.8333C11.1783 10.8333 8.8206 10.8352 7.09269 11.3476C6.24001 11.6004 5.41314 12.0128 5.00538 12.7333C4.70557 13.2629 4.67719 13.8689 4.89927 14.5341C4.96379 14.9097 5.15168 15.2465 5.39968 15.5369L6.20435 14.9479C6.05453 14.7072 5.94856 14.4938 5.87726 14.3042C5.87574 14.2859 5.875 14.2678 5.875 14.25C5.875 14.0248 5.98442 13.7627 6.28264 13.474C6.58234 13.184 7.04219 12.8997 7.65127 12.6504C8.867 12.1527 10.581 11.8333 12.5 11.8333C12.7486 11.8333 13.0394 11.8401 13.359 11.8549C14.9281 11.9344 16.3176 12.2283 17.3487 12.6504C17.9578 12.8997 18.4177 13.184 18.7174 13.474C19.0156 13.7627 19.125 14.0248 19.125 14.25C19.125 14.434 19.046 14.6461 18.8399 14.8874ZM7.27642 15.8536L6.15891 16.3202L7.28012 16.7779C8.6423 17.334 10.4872 17.6667 12.5 17.6667C14.5128 17.6667 16.3577 17.334 17.7199 16.7779L18.8411 16.3202L17.7236 15.8536C16.37 15.2884 14.574 14.9167 12.5 14.9167C10.426 14.9167 8.62997 15.2884 7.27642 15.8536ZM3.5 14.25C3.5 13.0085 4.34599 11.8328 5.96094 10.9403C7.5677 10.0523 9.85456 9.5 12.5 9.5C15.1454 9.5 17.4323 10.0523 19.0391 10.9403C20.654 11.8328 21.5 13.0085 21.5 14.25V17.8277C21.5 18.9867 20.6301 20.1466 18.9784 21.0459C17.3458 21.9348 15.0562 22.5 12.5 22.5C9.94378 22.5 7.65423 21.9348 6.02164 21.0459C4.36993 20.1466 3.5 18.9867 3.5 17.8277V14.25Z" fill="black" stroke="black"/>
<path d="M12.5 0.75C5.37402 0.75 0 3.77295 0 7.78125V12.5728C0 16.3984 5.59668 19.5 12.5 19.5C19.4033 19.5 25 16.3984 25 12.5728V7.78125C25 3.77295 19.626 0.75 12.5 0.75ZM12.5 3.875C17.6777 3.875 21.875 5.62402 21.875 7.78125C21.875 8.2334 21.6812 8.66602 21.3423 9.06982C26 4.90625 16.0269 3.875 12.5 3.875C8.97314 3.875 -0.657715 4.18018 2.5 9.34375C2.16113 8.93994 3.125 8.2334 3.125 7.78125C3.125 5.62402 7.32227 3.875 12.5 3.875ZM5.88037 10.5469C7.57031 9.82861 9.8457 9.34375 12.5 9.34375C15.1543 9.34375 17.4297 9.82861 19.1196 10.5469C17.4238 11.2515 15.0845 11.6875 12.5 11.6875C9.91553 11.6875 7.57617 11.2515 5.88037 10.5469Z" fill="black"/>
<path d="M13 5C9.00945 5 6 6.61224 6 8.75V11.3055C6 13.3458 9.13414 15 13 15C16.8659 15 20 13.3458 20 11.3055V8.75C20 6.61224 16.9905 5 13 5ZM13 6.66667C15.8995 6.66667 18.25 7.59948 18.25 8.75C18.25 8.99115 18.1414 9.22188 17.9517 9.43724C20.56 7.21667 14.975 6.66667 13 6.66667C11.025 6.66667 6.28 6.68333 8.04832 9.43724C7.85855 9.22188 7.75 8.99115 7.75 8.75C7.75 7.59948 10.1005 6.66667 13 6.66667ZM9.29301 10.225C10.2394 9.84193 11.5136 9.58333 13 9.58333C14.4864 9.58333 15.7606 9.84193 16.707 10.225C15.7573 10.6008 14.4473 10.8333 13 10.8333C11.5527 10.8333 10.2427 10.6008 9.29301 10.225Z" fill="#161616"/>
</svg>
