<svg width="16" height="20" viewBox="0 0 16 74" fill="none" xmlns="http://www.w3.org/2000/svg">
<g clip-path="url(#clip0_162_25)">
<path d="M4.97998 42.31H10.91V66.02C10.91 66.85 10.24 67.52 9.40998 67.52H6.47998C5.64998 67.52 4.97998 66.85 4.97998 66.02V42.31Z" fill="black"/>
<path d="M6.41992 65.55V68.49L7.93992 70.68L9.44992 68.41V65.47" stroke="black" stroke-miterlimit="10"/>
<path d="M7.93994 73.16V69.94" stroke="black" stroke-miterlimit="10"/>
<path d="M6.94998 69.01L6.47998 71.29L7.81998 72.83" stroke="black" stroke-miterlimit="10"/>
<path d="M8.9198 69.01L9.3998 71.29L8.0498 72.83" stroke="black" stroke-miterlimit="10"/>
<path d="M15.74 12.16C15.74 8.06 16.01 8.43 15.91 6.23C15.9 5.82 15.79 3.19 13.61 1.4C12.14 0.2 10.54 0.03 9.92996 0C9.26996 0.02 8.61996 0.04 7.95996 0.05V7.1C8.50996 7.06 9.08996 7.21 9.54996 7.59C10.53 8.38 10.69 9.81 9.89996 10.8C9.40996 11.41 8.67996 11.69 7.95996 11.64V42.31H10.95C12.36 42.31 13.63 41.39 14.01 40.03C15.12 36.03 13.55 32.9 13.76 27.84C13.99 22.44 15.73 16.38 15.73 12.15L15.74 12.16Z" fill="black"/>
<path d="M0.189775 12.16C0.189775 8.06 -0.0802246 8.43 0.0197754 6.23C0.0297754 5.82 0.139775 3.19 2.31978 1.4C3.78978 0.2 5.39978 0.03 5.99978 0C6.65978 0.02 7.30978 0.04 7.96978 0.05V7.1C7.41978 7.06 6.83978 7.21 6.37978 7.59C5.39978 8.38 5.23978 9.81 6.02978 10.8C6.51978 11.41 7.24978 11.69 7.96978 11.64V42.31H4.97978C3.56978 42.31 2.29978 41.39 1.91978 40.03C0.809775 36.03 2.37978 32.9 2.16978 27.84C1.93978 22.44 0.199775 16.38 0.199775 12.15L0.189775 12.16Z" fill="black"/>
</g>
<defs>
<clipPath id="clip0_162_25">
<rect width="15.93" height="73.16" fill="white"/>
</clipPath>
</defs>
</svg>
