<svg width="26" height="26" viewBox="0 0 26 26" fill="none" xmlns="http://www.w3.org/2000/svg">
<path d="M4.17608 14.4459L4.16515 13.5941C4.16052 13.2334 4.44838 12.9456 4.80716 12.9521L12.2641 13.0458C12.6248 13.0505 12.9201 13.3458 12.9228 13.7045L13.0185 21.1634C13.0231 21.5241 12.7352 21.8119 12.3765 21.8054L11.5247 21.7945C11.1602 21.7898 10.8628 21.4849 10.8658 21.1205L10.9172 16.6078L5.47438 22.0506C5.2225 22.3025 4.81195 22.2972 4.55353 22.0388L3.93175 21.417C3.67333 21.1586 3.66806 20.7481 3.91994 20.4962L9.36279 15.0533L4.85012 15.1048C4.48382 15.1097 4.17886 14.8123 4.17608 14.4459Z" fill="black"/>
<path d="M21.7946 11.5247L21.8056 12.3765C21.8102 12.7371 21.5223 13.025 21.1635 13.0185L13.7066 12.9247C13.3459 12.9201 13.0506 12.6248 13.0479 12.266L12.9522 4.80717C12.9476 4.4465 13.2355 4.15864 13.5942 4.16516L14.446 4.17609C14.8105 4.18076 15.1079 4.48572 15.1049 4.85013L15.0535 9.3628L20.4963 3.91995C20.7482 3.66807 21.1588 3.67334 21.4172 3.93176L22.0389 4.55354C22.2974 4.81196 22.3026 5.22251 22.0508 5.47439L16.6079 10.9172L21.1206 10.8658C21.4869 10.8609 21.7918 11.1583 21.7946 11.5247Z" fill="black"/>
</svg>
