<svg width="12" height="12" viewBox="0 0 12 12" fill="none" xmlns="http://www.w3.org/2000/svg">
<path d="M11.745 9.27331L9.00067 6.52905C8.45929 5.9877 7.65075 5.88224 6.99922 6.2033L4.50092 3.70511V2.24978L1.50109 0L0.00117179 1.49985L2.25105 4.49956H3.70643L6.20473 6.99775C5.886 7.64925 5.98912 8.45777 6.5305 8.99912L9.27487 11.7434C9.61704 12.0855 10.1701 12.0855 10.51 11.7434L11.745 10.5083C12.0849 10.1662 12.0849 9.61312 11.745 9.27331ZM7.77496 5.27292C8.4382 5.27292 9.06161 5.53071 9.53033 5.99941L9.98499 6.45406C10.3553 6.29235 10.7068 6.06738 11.0115 5.76272C11.881 4.89327 12.1763 3.66995 11.8997 2.55913C11.8482 2.34821 11.5833 2.27556 11.4287 2.43023L9.68501 4.17381L8.09369 3.90899L7.82886 2.31774L9.57251 0.574163C9.72719 0.41949 9.6522 0.154672 9.43893 0.100771C8.32805 -0.173421 7.10468 0.121863 6.23754 0.988966C5.56961 1.65687 5.25557 2.53803 5.27197 3.41685L7.19608 5.34088C7.38592 5.29636 7.58278 5.27292 7.77496 5.27292ZM5.33994 7.19461L4.01111 5.86583L0.439429 9.4397C-0.146476 10.0256 -0.146476 10.9747 0.439429 11.5606C1.02533 12.1465 1.9745 12.1465 2.5604 11.5606L5.45712 8.664C5.279 8.19764 5.2251 7.68909 5.33994 7.19461ZM1.50109 11.0614C1.19173 11.0614 0.93862 10.8083 0.93862 10.499C0.93862 10.1873 1.18939 9.93653 1.50109 9.93653C1.81279 9.93653 2.06356 10.1873 2.06356 10.499C2.06356 10.8083 1.81279 11.0614 1.50109 11.0614Z" fill="black" fill-opacity="0.8"/>
</svg>
