<svg width="28" height="19" viewBox="0 0 26 17" fill="none" xmlns="http://www.w3.org/2000/svg">
<path d="M15.592 0H2C0.854167 0 0 0.854167 0 2V14.5C0 15.6458 0.854167 16.6667 2 16.6667H15.592C16.7378 16.6667 18 15.6458 18 14.5V8.5V2C18 0.854167 16.7378 0 15.592 0ZM23.8125 1.63628L19.0556 4.91753V11.7491L23.8125 15.026C24.7326 15.6597 26 15.013 26 13.9062V2.75608C26 1.65365 24.737 1.0026 23.8125 1.63628Z" fill="black" fill-opacity="0.8"/>
<path d="M10.8819 4.00002C9.71528 4.0047 8.77778 5.08595 8.77778 6.39845V7.50001H5.66667C5.29861 7.50001 5 7.83595 5 8.25001V11.25C5 11.6641 5.29861 12 5.66667 12H10.5556C10.9236 12 11.2222 11.6641 11.2222 11.25V8.25001C11.2222 7.83595 10.9236 7.50001 10.5556 7.50001H9.88889V6.38907C9.88889 5.77032 10.3292 5.25626 10.8792 5.25001C11.4347 5.24376 11.8889 5.75157 11.8889 6.37501V7.62501C11.8889 7.83282 12.0375 8.00001 12.2222 8.00001H12.6667C12.8514 8.00001 13 7.83282 13 7.62501V6.37501C13 5.06251 12.0486 3.99533 10.8819 4.00002Z" fill="white"/>
</svg>
